<?xml version="1.0" encoding="UTF-8" standalone="no"?>
<svg width="799px" height="799px" viewBox="0 0 799 799" version="1.1" xmlns="http://www.w3.org/2000/svg" xmlns:xlink="http://www.w3.org/1999/xlink">
    <!-- Generator: Sketch 3.8.3 (29802) - http://www.bohemiancoding.com/sketch -->
    <title>cog</title>
    <desc>Created with Sketch.</desc>
    <defs></defs>
    <g id="Page-1" stroke="none" stroke-width="1" fill="none" fill-rule="evenodd">
        <g id="cog" fill="#000000">
            <path d="M798.702881,449.26749 L798.702881,349.435391 L719.634568,349.435391 C716.024691,326.184362 710.085597,303.756379 701.787654,282.406584 L770.146502,242.915226 L720.217284,156.43786 L651.967078,195.871605 C637.346502,177.833745 620.967901,161.358025 602.83786,146.780247 L642.309465,78.4872428 L555.835391,28.5662551 L516.348971,96.962963 C494.997531,88.673251 472.57284,82.6781893 449.272428,79.1176955 L449.272428,0 L349.437037,0 L349.437037,79.1242798 C326.232099,82.6781893 303.807407,88.727572 282.449383,96.962963 L242.969547,28.5662551 L156.483951,78.4872428 L195.871605,146.788477 C177.837037,161.361317 161.362963,177.840329 146.834568,195.871605 L78.4888889,156.43786 L28.5679012,242.869136 L97.0106996,282.406584 C88.7292181,303.756379 82.7242798,326.184362 79.1720165,349.435391 L0.00164609053,349.435391 L0.00164609053,449.26749 L79.1736626,449.26749 C82.7259259,472.523457 88.7308642,494.948148 97.0123457,516.306173 L28.5695473,555.792593 L78.490535,642.266667 L146.83786,602.832922 C161.366255,620.870782 177.840329,637.341564 195.874897,651.922634 L156.487243,720.21893 L242.97284,770.131687 L282.459259,701.741564 C303.809053,710.031276 326.233745,715.976955 349.438683,719.581893 L349.438683,798.701235 L449.274074,798.701235 L449.274074,719.581893 C472.574486,715.978601 495.007407,710.031276 516.350617,701.741564 L555.837037,770.131687 L642.325926,720.21893 L602.839506,651.922634 C620.969547,637.341564 637.348148,620.870782 651.981893,602.778601 L720.225514,642.220576 L770.146502,555.792593 L701.787654,516.306173 C710.085597,494.948148 716.023045,472.523457 719.642798,449.26749 L798.702881,449.26749 L798.702881,449.26749 L798.702881,449.26749 Z M399.353086,623.990123 C275.334979,623.990123 174.714403,523.374486 174.714403,399.35144 C174.714403,275.288889 275.334979,174.717695 399.353086,174.717695 C523.371193,174.717695 623.995062,275.288889 623.995062,399.35144 C623.995062,523.374486 523.371193,623.990123 399.353086,623.990123 L399.353086,623.990123 Z" id="Shape"></path>
        </g>
    </g>
</svg>